<?xml version="1.0" standalone="no"?>
<!DOCTYPE svg PUBLIC "-//W3C//DTD SVG 20010904//EN"
 "http://www.w3.org/TR/2001/REC-SVG-20010904/DTD/svg10.dtd">
<svg version="1.0" xmlns="http://www.w3.org/2000/svg"
 width="700.000000pt" height="700.000000pt" viewBox="0 0 700.000000 700.000000"
 preserveAspectRatio="xMidYMid meet">
<metadata>
Created by potrace 1.14, written by Peter Selinger 2001-2017
</metadata>
<g transform="translate(0.000000,700.000000) scale(0.100000,-0.100000)"
fill="#000000" stroke="none">
<path d="M3435 6232 c-110 -11 -239 -76 -324 -161 -95 -97 -149 -220 -156
-356 -11 -218 107 -421 302 -517 l62 -30 0 -554 c0 -305 2 -558 5 -562 3 -5
329 -8 356 -3 3 1 5 246 5 546 l0 546 684 -685 684 -684 -22 -46 -21 -46
-1510 0 -1510 0 -22 48 c-63 139 -215 286 -358 346 -117 49 -159 58 -275 61
-213 7 -407 -73 -551 -225 -98 -103 -171 -249 -191 -379 -11 -72 -7 -223 7
-281 68 -282 295 -501 573 -555 142 -27 330 -5 444 54 23 11 47 21 52 21 5 0
222 -211 483 -469 260 -258 553 -547 650 -643 l177 -175 -10 -34 c-17 -55 -19
-179 -4 -247 31 -150 136 -292 268 -366 210 -117 471 -85 641 79 219 210 231
549 26 769 -47 51 -134 114 -185 134 l-31 13 0 467 1 467 -183 3 -182 2 0
-157 c-1 -87 -1 -299 0 -470 0 -204 -3 -314 -10 -314 -5 -1 -14 -2 -19 -3 -5
-1 -137 123 -292 275 -156 152 -309 300 -339 329 -30 29 -183 178 -340 330
-157 153 -300 292 -318 309 -26 26 -30 34 -21 49 10 16 95 17 1512 16 826 -1
1507 -2 1513 -3 5 0 20 -22 31 -49 46 -105 159 -227 276 -297 65 -39 183 -84
247 -93 81 -12 242 -6 309 11 363 96 594 451 538 824 -9 58 -51 182 -80 234
-171 303 -536 449 -857 342 l-85 -29 -160 162 c-738 747 -1201 1218 -1208
1230 -4 7 0 39 9 71 20 69 26 179 13 253 -6 30 -28 92 -50 137 -99 207 -322
330 -554 305z"/>
</g>
</svg>
